<svg xmlns="http://www.w3.org/2000/svg" viewBox="0 0 512 512" id="Sun">
  <path d="M256.11,128.88A127.23,127.23,0,1,0,383.35,256.11,127.38,127.38,0,0,0,256.11,128.88Zm0,224.46a97.23,97.23,0,1,1,97.23-97.23A97.34,97.34,0,0,1,256.11,353.35Zm-15-260.49L241,25a15,15,0,0,1,15-15h0a15,15,0,0,1,15,15l.11,67.83a15,15,0,0,1-15,15h0A15,15,0,0,1,241.11,92.85Zm-138,31.52a15,15,0,0,1,21.18-21.25l27,26.9a15,15,0,1,1-21.18,21.25ZM151.24,361a15,15,0,0,1,0,21.21l-26.9,27A15,15,0,1,1,103.13,388L130,361A15,15,0,0,1,151.24,361Zm257.92,26.9A15,15,0,1,1,388,409.1l-27-26.9A15,15,0,1,1,382.17,361ZM361,151.28a15,15,0,0,1,0-21.21l26.9-27a15,15,0,0,1,21.25,21.18l-26.9,27a15,15,0,0,1-21.21,0ZM92.85,271.12,25,271.23h0a15,15,0,0,1,0-30l67.83-.11h0a15,15,0,0,1,0,30ZM271.12,419.38l.11,67.83a15,15,0,0,1-15,15h0a15,15,0,0,1-15-15l-.11-67.83a15,15,0,0,1,15-15h0A15,15,0,0,1,271.12,419.38ZM502.23,256a15,15,0,0,1-15,15l-67.83.11h0a15,15,0,0,1,0-30L487.2,241h0A15,15,0,0,1,502.23,256Z" fill="#ffffff" class="color000000 svgShape"></path>
</svg>
